<svg width="32" height="32" viewBox="0 0 32 32" fill="none" xmlns="http://www.w3.org/2000/svg">
<g clip-path="url(#clip0_5_187)">
<path d="M0 23.4375V21.3867C0 20.4536 0.477431 19.694 1.43229 19.1081C2.38715 18.5221 3.64583 18.2292 5.20833 18.2292C5.49045 18.2292 5.76172 18.2348 6.02214 18.2461C6.28255 18.2574 6.53212 18.2843 6.77083 18.3268C6.46701 18.7826 6.23915 19.26 6.08724 19.7591C5.93533 20.2582 5.85938 20.7791 5.85938 21.3216V23.4375H0ZM7.8125 23.4375V21.3216C7.8125 20.6272 8.0026 19.9922 8.38281 19.4167C8.76302 18.8411 9.29991 18.3368 9.99349 17.9036C10.6871 17.4705 11.5174 17.145 12.4844 16.9271C13.4514 16.7092 14.4983 16.6007 15.625 16.6016C16.7752 16.6016 17.8333 16.7101 18.7995 16.9271C19.7656 17.1441 20.5955 17.4696 21.2891 17.9036C21.9826 18.3377 22.5143 18.8424 22.8841 19.418C23.2539 19.9935 23.4384 20.628 23.4375 21.3216V23.4375H7.8125ZM25.3906 23.4375V21.3216C25.3906 20.7574 25.3203 20.2257 25.1797 19.7266C25.0391 19.2274 24.8273 18.7609 24.5443 18.3268C24.783 18.2834 25.0273 18.2565 25.2773 18.2461C25.5273 18.2357 25.7821 18.23 26.0417 18.2292C27.6042 18.2292 28.8628 18.5169 29.8177 19.0924C30.7726 19.668 31.25 20.4327 31.25 21.3867V23.4375H25.3906ZM5.20833 16.9271C4.49219 16.9271 3.87934 16.6723 3.36979 16.1628C2.86024 15.6532 2.60503 15.0399 2.60417 14.3229C2.60417 13.5851 2.85938 12.9666 3.36979 12.4674C3.88021 11.9683 4.49306 11.7188 5.20833 11.7188C5.94618 11.7188 6.56467 11.9683 7.0638 12.4674C7.56293 12.9666 7.8125 13.5851 7.8125 14.3229C7.8125 15.0391 7.56293 15.6523 7.0638 16.1628C6.56467 16.6732 5.94618 16.928 5.20833 16.9271ZM26.0417 16.9271C25.3255 16.9271 24.7127 16.6723 24.2031 16.1628C23.6936 15.6532 23.4384 15.0399 23.4375 14.3229C23.4375 13.5851 23.6927 12.9666 24.2031 12.4674C24.7135 11.9683 25.3264 11.7188 26.0417 11.7188C26.7795 11.7188 27.398 11.9683 27.8971 12.4674C28.3963 12.9666 28.6458 13.5851 28.6458 14.3229C28.6458 15.0391 28.3963 15.6523 27.8971 16.1628C27.398 16.6732 26.7795 16.928 26.0417 16.9271ZM15.625 15.625C14.5399 15.625 13.6176 15.2452 12.8581 14.4857C12.0985 13.7261 11.7188 12.8038 11.7188 11.7188C11.7188 10.612 12.0985 9.68446 12.8581 8.9362C13.6176 8.18793 14.5399 7.81337 15.625 7.8125C16.7318 7.8125 17.6597 8.18707 18.4089 8.9362C19.158 9.68533 19.5321 10.6128 19.5312 11.7188C19.5312 12.8038 19.1571 13.7261 18.4089 14.4857C17.6606 15.2452 16.7326 15.625 15.625 15.625Z" fill="#A4A4A4"/>
</g>
<defs>
<clipPath id="clip0_5_187">
<rect width="31.25" height="31.25" fill="white"/>
</clipPath>
</defs>
</svg>
