<svg width="57" height="58" viewBox="0 0 57 58" fill="none" xmlns="http://www.w3.org/2000/svg">
<path d="M49.875 9.0625H40.9688V7.25C40.9688 4.16875 38.6531 1.8125 35.625 1.8125H28.5H21.375C18.3469 1.8125 16.0312 4.16875 16.0312 7.25V9.0625H7.125C6.23438 9.0625 5.34375 9.96875 5.34375 10.875C5.34375 11.7812 6.23438 12.6875 7.125 12.6875H8.90625V47.125C8.90625 52.2 12.825 56.1875 17.8125 56.1875H28.5H39.1875C44.175 56.1875 48.0938 52.2 48.0938 47.125V12.6875H49.875C50.7656 12.6875 51.6562 11.7812 51.6562 10.875C51.6562 9.96875 50.7656 9.0625 49.875 9.0625Z" fill="#80D6FA"/>
<path d="M49.875 9.0625H40.9688V7.25C40.9688 4.16875 38.6531 1.8125 35.625 1.8125H28.5H21.375C18.3469 1.8125 16.0312 4.16875 16.0312 7.25V9.0625H7.125C6.23438 9.0625 5.34375 9.96875 5.34375 10.875C5.34375 11.7812 6.23438 12.6875 7.125 12.6875H8.90625V47.125C8.90625 52.2 12.825 56.1875 17.8125 56.1875H28.5H39.1875C44.175 56.1875 48.0938 52.2 48.0938 47.125V12.6875H49.875C50.7656 12.6875 51.6562 11.7812 51.6562 10.875C51.6562 9.96875 50.7656 9.0625 49.875 9.0625Z" fill="#FC6060"/>
<path d="M21.375 20.1187C20.4844 20.1187 19.5938 21.0249 19.5938 21.9312V43.6812C19.5938 44.7687 20.4844 45.4937 21.375 45.4937C22.2656 45.4937 23.1562 44.7687 23.1562 43.6812V21.9312C23.1562 21.0249 22.2656 20.1187 21.375 20.1187Z" fill="#D9D9D9"/>
<path d="M35.625 20.1187C34.7344 20.1187 33.8438 21.0249 33.8438 21.9312V43.6812C33.8438 44.7687 34.7344 45.4937 35.625 45.4937C36.5156 45.4937 37.4062 44.7687 37.4062 43.6812V21.9312C37.4062 21.0249 36.5156 20.1187 35.625 20.1187Z" fill="#D9D9D9"/>
<path d="M49.875 9.0625H40.9688V7.25C40.9688 4.16875 38.6531 1.8125 35.625 1.8125H28.5H21.375C18.3469 1.8125 16.0312 4.16875 16.0312 7.25V9.0625H7.125C6.23438 9.0625 5.34375 9.96875 5.34375 10.875C5.34375 11.7812 6.23438 12.6875 7.125 12.6875H28.5H49.875C50.7656 12.6875 51.6562 11.7812 51.6562 10.875C51.6562 9.96875 50.7656 9.0625 49.875 9.0625Z" fill="#A4A4A4"/>
</svg>
