<svg width="20" height="20" viewBox="0 0 20 20" fill="none" xmlns="http://www.w3.org/2000/svg">
<path d="M9.375 8.75H10V14.375H10.625M18.125 10C18.125 12.1549 17.269 14.2215 15.7452 15.7452C14.2215 17.269 12.1549 18.125 10 18.125C7.84512 18.125 5.77849 17.269 4.25476 15.7452C2.73102 14.2215 1.875 12.1549 1.875 10C1.875 7.84512 2.73102 5.77849 4.25476 4.25476C5.77849 2.73102 7.84512 1.875 10 1.875C12.1549 1.875 14.2215 2.73102 15.7452 4.25476C17.269 5.77849 18.125 7.84512 18.125 10Z" stroke="#A4A4A4" stroke-linecap="round" stroke-linejoin="round"/>
<mask id="mask0_42_830" style="mask-type:luminance" maskUnits="userSpaceOnUse" x="9" y="5" width="2" height="2">
<path d="M10.9375 5.9375C10.9375 6.18614 10.8387 6.4246 10.6629 6.60041C10.4871 6.77623 10.2486 6.875 10 6.875C9.75136 6.875 9.5129 6.77623 9.33709 6.60041C9.16127 6.4246 9.0625 6.18614 9.0625 5.9375C9.0625 5.68886 9.16127 5.4504 9.33709 5.27459C9.5129 5.09877 9.75136 5 10 5C10.2486 5 10.4871 5.09877 10.6629 5.27459C10.8387 5.4504 10.9375 5.68886 10.9375 5.9375Z" fill="white"/>
</mask>
<g mask="url(#mask0_42_830)">
<path d="M10.9375 5.9375C10.9375 6.18614 10.8387 6.4246 10.6629 6.60041C10.4871 6.77623 10.2486 6.875 10 6.875C9.75136 6.875 9.5129 6.77623 9.33709 6.60041C9.16127 6.4246 9.0625 6.18614 9.0625 5.9375C9.0625 5.68886 9.16127 5.4504 9.33709 5.27459C9.5129 5.09877 9.75136 5 10 5C10.2486 5 10.4871 5.09877 10.6629 5.27459C10.8387 5.4504 10.9375 5.68886 10.9375 5.9375Z" fill="#A4A4A4" stroke="#A4A4A4"/>
</g>
</svg>
