<svg width="27" height="27" viewBox="0 0 27 27" fill="none" xmlns="http://www.w3.org/2000/svg">
<path d="M18.9887 13.021C20.5715 13.021 22.0894 13.6498 23.2086 14.7689C24.3278 15.8881 24.9566 17.4061 24.9566 18.9889C24.9566 20.5717 24.3278 22.0896 23.2086 23.2088C22.0894 24.328 20.5715 24.9568 18.9887 24.9568C17.4059 24.9568 15.888 24.328 14.7688 23.2088C13.6496 22.0896 13.0208 20.5717 13.0208 18.9889C13.0208 17.4061 13.6496 15.8881 14.7688 14.7689C15.888 13.6498 17.4059 13.021 18.9887 13.021ZM19.26 3.25537C20.1952 3.25537 21.0922 3.62691 21.7536 4.28825C22.4149 4.94959 22.7864 5.84657 22.7864 6.78185L22.7875 13.046C22.2801 12.7207 21.7331 12.4618 21.1599 12.2756L21.1588 9.22325H4.88279V19.2601C4.88279 20.3083 5.73349 21.159 6.78166 21.159H12.2765C12.4631 21.7384 12.7235 22.2853 13.0458 22.7877L6.78166 22.7866C5.84638 22.7866 4.94941 22.4151 4.28807 21.7537C3.62673 21.0924 3.25519 20.1954 3.25519 19.2601V6.78185C3.25519 5.84657 3.62673 4.94959 4.28807 4.28825C4.94941 3.62691 5.84638 3.25537 6.78166 3.25537H19.26ZM18.9887 15.1911L18.891 15.1998C18.7826 15.2196 18.6828 15.272 18.6049 15.3499C18.527 15.4278 18.4746 15.5276 18.4548 15.636L18.4462 15.7337V18.4463H15.7335L15.6358 18.455C15.5274 18.4748 15.4276 18.5272 15.3497 18.6051C15.2718 18.683 15.2194 18.7828 15.1996 18.8912L15.191 18.9889L15.1996 19.0865C15.2194 19.1949 15.2718 19.2947 15.3497 19.3727C15.4276 19.4506 15.5274 19.5029 15.6358 19.5227L15.7335 19.5314H18.4462V22.2441L18.4548 22.3417C18.4746 22.4501 18.527 22.5499 18.6049 22.6279C18.6828 22.7058 18.7826 22.7581 18.891 22.7779L18.9887 22.7866L19.0864 22.7779C19.1948 22.7581 19.2946 22.7058 19.3725 22.6279C19.4504 22.5499 19.5027 22.4501 19.5225 22.3417L19.5312 22.2441V19.5314H22.2439L22.3416 19.5227C22.45 19.5029 22.5498 19.4506 22.6277 19.3727C22.7056 19.2947 22.758 19.1949 22.7778 19.0865L22.7864 18.9889L22.7778 18.8912C22.758 18.7828 22.7056 18.683 22.6277 18.6051C22.5498 18.5272 22.45 18.4748 22.3416 18.455L22.2439 18.4463H19.5312V15.7337L19.5225 15.636C19.5027 15.5276 19.4504 15.4278 19.3725 15.3499C19.2946 15.272 19.1948 15.2196 19.0864 15.1998L18.9887 15.1911ZM19.26 4.88298H6.78166C6.27805 4.88298 5.79507 5.08303 5.43896 5.43914C5.08285 5.79525 4.88279 6.27823 4.88279 6.78185V7.59565H21.1588V6.78185C21.1588 6.27823 20.9588 5.79525 20.6027 5.43914C20.2466 5.08303 19.7636 4.88298 19.26 4.88298Z" fill="#A4A4A4"/>
</svg>
