<svg width="74" height="74" viewBox="0 0 74 74" fill="none" xmlns="http://www.w3.org/2000/svg">
<path fill-rule="evenodd" clip-rule="evenodd" d="M48.782 37.1164C48.782 35.9648 47.8484 35.0311 46.6968 35.0311H16.1889L21.6402 30.3585C22.5147 29.609 22.6159 28.2926 21.8664 27.4182C21.1169 26.5438 19.8005 26.4425 18.9261 27.192L9.19476 35.5333C8.73255 35.9292 8.46655 36.5078 8.46655 37.1164C8.46655 37.725 8.73255 38.3036 9.19476 38.6995L18.9261 47.0407C19.8005 47.7903 21.1169 47.6891 21.8664 46.8146C22.6159 45.9402 22.5147 44.6237 21.6402 43.8744L16.1889 39.2017H46.6968C47.8484 39.2017 48.782 38.268 48.782 37.1164Z" fill="black"/>
<g filter="url(#filter0_d_46_2206)">
<path d="M30.0144 25.9957C30.0144 27.9481 30.0144 28.9243 30.4829 29.6255C30.6858 29.9292 30.9465 30.1899 31.2502 30.3928C31.9515 30.8613 32.9277 30.8613 34.8801 30.8613H46.6967C50.1516 30.8613 52.9525 33.6621 52.9525 37.1173C52.9525 40.5722 50.1516 43.3731 46.6967 43.3731H34.8801C32.9277 43.3731 31.9512 43.3731 31.25 43.8416C30.9465 44.0446 30.6859 44.3051 30.483 44.6087C30.0144 45.3099 30.0144 46.2861 30.0144 48.2388C30.0144 56.1028 30.0144 60.0348 32.4575 62.4779C34.9006 64.921 38.8321 64.921 46.6961 64.921H49.4765C57.3405 64.921 61.2725 64.921 63.7157 62.4779C66.1588 60.0348 66.1588 56.1028 66.1588 48.2388V25.9957C66.1588 18.1317 66.1588 14.1996 63.7157 11.7565C61.2725 9.31348 57.3405 9.31348 49.4765 9.31348H46.6961C38.8321 9.31348 34.9006 9.31348 32.4575 11.7565C30.0144 14.1996 30.0144 18.1316 30.0144 25.9957Z" fill="#FC6060"/>
</g>
<defs>
<filter id="filter0_d_46_2206" x="25.0144" y="7.31348" width="46.1443" height="65.6074" filterUnits="userSpaceOnUse" color-interpolation-filters="sRGB">
<feFlood flood-opacity="0" result="BackgroundImageFix"/>
<feColorMatrix in="SourceAlpha" type="matrix" values="0 0 0 0 0 0 0 0 0 0 0 0 0 0 0 0 0 0 127 0" result="hardAlpha"/>
<feOffset dy="3"/>
<feGaussianBlur stdDeviation="2.5"/>
<feComposite in2="hardAlpha" operator="out"/>
<feColorMatrix type="matrix" values="0 0 0 0 0.5 0 0 0 0 0.5 0 0 0 0 0.5 0 0 0 0.25 0"/>
<feBlend mode="normal" in2="BackgroundImageFix" result="effect1_dropShadow_46_2206"/>
<feBlend mode="normal" in="SourceGraphic" in2="effect1_dropShadow_46_2206" result="shape"/>
</filter>
</defs>
</svg>
