<svg width="24" height="24" viewBox="0 0 24 24" fill="none" xmlns="http://www.w3.org/2000/svg">
<path fill-rule="evenodd" clip-rule="evenodd" d="M5.2489 4.64229C6.3269 3.63929 7.54989 2.90429 8.96789 2.45529C9.39989 2.31729 9.8809 2.5093 10.1239 2.8923C11.0729 4.38829 12.8769 4.36129 13.8429 2.86129C14.0849 2.48529 14.5399 2.32529 14.9679 2.45529C16.3609 2.87929 17.6899 3.65229 18.7799 4.64229C19.1259 4.95629 19.1979 5.45429 18.9679 5.86129C18.1409 7.32129 19.0889 8.98329 20.7799 8.98629C21.2479 8.98729 21.6469 9.31129 21.7489 9.76729C21.9099 10.4893 21.9989 11.2323 21.9989 11.9863C21.9989 12.8632 21.9529 13.4882 21.7799 14.2052C21.6729 14.6472 21.2669 14.9472 20.8109 14.9552C19.0929 14.9842 18.1359 16.5262 18.9679 18.2052C19.1659 18.6052 19.0789 19.0922 18.7489 19.3922C17.6779 20.3692 16.3859 21.1122 14.9989 21.5482C14.5789 21.6812 14.1229 21.5062 13.8739 21.1422C12.8179 19.5982 11.2049 19.6042 10.0929 21.1422C9.84089 21.4912 9.37789 21.6462 8.96789 21.5172C7.53089 21.0672 6.3109 20.3752 5.2489 19.3922C4.9319 19.0992 4.84991 18.6292 5.02991 18.2362C5.84191 16.4672 4.9419 15.0812 3.1239 14.9242C2.6839 14.8852 2.3079 14.5742 2.2179 14.1422C2.0729 13.4502 1.9989 12.6732 1.9989 11.9863C1.9989 11.1673 2.0699 10.5433 2.2489 9.79828C2.3529 9.36728 2.74389 9.04029 3.18689 9.01729C4.99289 8.92629 5.83091 7.34229 5.02991 5.86129C4.81391 5.46029 4.9159 4.95329 5.2489 4.64229ZM15.9989 11.9863C15.9989 9.77729 14.2079 7.98629 11.9989 7.98629C9.7899 7.98629 7.9989 9.77729 7.9989 11.9863C7.9989 14.1952 9.7899 15.9862 11.9989 15.9862C14.2079 15.9862 15.9989 14.1952 15.9989 11.9863Z" fill="#A4A4A4"/>
</svg>
